<svg id="Capa_1" enable-background="new 0 0 512.018 512.018" height="512" viewBox="0 0 512.018 512.018" width="512" xmlns="http://www.w3.org/2000/svg"><g><path d="m5.186 340.827c-4.919 4.258-6.532 11.202-3.994 17.193s8.653 9.676 15.13 9.089c16.049-1.417 25.967 2.008 36.596 12.636 14.294 14.294 21.651 29.8 20.184 42.54-1.105 9.59 7.027 17.725 16.617 16.617 12.603-1.454 28.012 5.896 42.274 20.158 10.691 10.692 12.506 23.097 12.847 38.277.295 13.143 16.266 19.607 25.603 10.27 47.469-47.468 52.936-124.424 5.657-171.703-45.531-45.534-122.987-36.566-170.914 4.923z" fill="#74dce2"/><path d="m176.1 335.905-98.703 98.703c3.237 3.236 7.774 4.82 12.322 4.294 12.603-1.454 28.012 5.896 42.274 20.158 10.691 10.692 12.506 23.097 12.847 38.277.296 13.183 16.322 19.552 25.603 10.27 47.469-47.468 52.936-124.422 5.657-171.702z" fill="#3ac7cf"/><path d="m497.339 144.838c-15.152-.34-27.529-1.997-38.327-12.795-14.237-14.236-21.565-29.664-20.107-42.326 1.108-9.62-7.058-17.727-16.617-16.617-12.804 1.464-28.324-5.865-42.592-20.133-10.597-10.597-14.007-20.529-12.584-36.646.572-6.48-3.099-12.592-9.09-15.131-5.991-2.538-12.935-.926-17.193 3.994-41.494 47.934-50.466 125.372-4.922 170.914 47.275 47.276 124.228 41.818 171.703-5.657 9.304-9.305 2.919-25.309-10.271-25.603z" fill="#74dce2"/><path d="m507.61 170.44c9.304-9.304 2.919-25.309-10.271-25.603-15.152-.34-27.529-1.997-38.327-12.795-14.237-14.236-21.565-29.664-20.107-42.326.524-4.548-1.057-9.084-4.294-12.322l-98.703 98.704c46.988 46.99 123.911 42.133 171.702-5.658z" fill="#3ac7cf"/><path d="m370.893 293.111-21.21 21.21 23.49 23.5c-9.187 13.4-21.194 25.634-35.35 35.36l-23.5-23.5-21.21 21.21 17.04 17.04c-16.84 6.68-35.15 10.17-54.15 10.17-80.131 0-142.1-61.85-142.1-142.1 0-19 3.49-37.31 10.17-54.15l18.58 18.58c9.77-3.86 19.04-8.8 27.67-14.75l-31.5-31.5c9.237-13.446 21.25-25.676 35.36-35.35l25.32 25.32c5.96-8.61 10.89-17.88 14.76-27.65l-12.42-12.43c16.85-6.67 35.16-10.17 54.16-10.17 80.131 0 142.1 61.85 142.1 142.1 0 19-3.5 37.31-10.17 54.16z" fill="#ff6888"/><path d="m370.893 293.111-21.21 21.21 23.49 23.5c-9.187 13.4-21.194 25.634-35.35 35.36l-23.5-23.5-21.21 21.21 17.04 17.04c-50.505 20.033-113.396 11.048-155.27-30.81l202.24-202.24c41.71 41.726 50.879 104.581 30.81 155.28z" fill="#ff515e"/><path d="m337.823 373.181c-8.63 5.95-17.9 10.89-27.67 14.75l-186.08-186.08c3.86-9.77 8.8-19.04 14.75-27.67z" fill="#fef77d"/><path d="m310.153 387.931c9.77-3.86 19.04-8.8 27.67-14.75l-99.5-99.5-21.21 21.21z" fill="#f4de48"/><path d="m387.933 310.161c-3.87 9.77-8.8 19.04-14.76 27.66l-198.99-198.99c8.62-5.96 17.89-10.89 27.66-14.76z" fill="#fef77d"/><path d="m373.173 337.821c5.96-8.62 10.89-17.89 14.76-27.66l-93.045-93.045-21.21 21.21z" fill="#f4de48"/></g></svg>